# xmcd
#
# Track frame offsets:
#	150
#	17214
#	36921
#	52237
#	74086
#	94715
#	112449
#	136573
#	155585
#	173264
#	192198
#	212562
#	230771
#	247227
#
# Disc length: 3610
#
# Revision: 1
# Processed by: cddbd v1.5.1PL0 Copyright (c) Steve Scherf et al.
# Submitted via: dBpowerAMP V4.0
# Normalized: r0:TRMNUM
#
DISCID=cf0e180e
DTITLE=George Benson - The best of
DYEAR=1900
DGENRE=Ballad
TTITLE0=Give me the night
TTITLE1=Love ballad
TTITLE2=This masquerade
TTITLE3=Love X love
TTITLE4=I just wanna hang around you
TTITLE5=Turn your love around
TTITLE6=Inside love
TTITLE7=20/20
TTITLE8=Everything must change
TTITLE9=Never give up on a good thing
TTITLE10=Kisses in the moonlight
TTITLE11=Lady love me (one more time)
TTITLE12=Lady blue
TTITLE13=On Broadway 
EXTD=
EXTT0=
EXTT1=
EXTT2=
EXTT3=
EXTT4=
EXTT5=
EXTT6=
EXTT7=
EXTT8=
EXTT9=
EXTT10=
EXTT11=
EXTT12=
EXTT13=
PLAYORDER=
